<?xml version="1.0" encoding="UTF-8" standalone="no"?>
<!-- Created with Inkscape (http://www.inkscape.org/) -->

<svg
   width="5120"
   height="1024"
   viewBox="0 0 1350 270"
   version="1.1"
   id="svg1"
   xmlns:xlink="http://www.w3.org/1999/xlink"
   xmlns="http://www.w3.org/2000/svg">
  <style>
    @import url('https://fonts.googleapis.com/css2?family=Nunito:ital,wght@0,200..1000;1,200..1000');
  </style>
  <defs
     id="defs1">
    <linearGradient
       id="linearGradient10">
      <stop
         style="stop-color:#ffec80;stop-opacity:1;"
         offset="0"
         id="stop11" />
      <stop
         style="stop-color:#ffe44d;stop-opacity:1;"
         offset="0.13508555"
         id="stop13" />
      <stop
         style="stop-color:#b39800;stop-opacity:1;"
         offset="0.37561125"
         id="stop14" />
      <stop
         style="stop-color:#806c00;stop-opacity:1;"
         offset="1"
         id="stop10" />
    </linearGradient>
    <linearGradient
       xlink:href="#linearGradient10"
       id="linearGradient11"
       x1="42.333332"
       y1="227.54169"
       x2="227.54166"
       y2="58.208336"
       gradientUnits="userSpaceOnUse" />
  </defs>
  <g
     id="layer2">
    <circle
       style="fill:url(#linearGradient11);fill-opacity:1;stroke:#332b00;stroke-width:16.9333;stroke-linejoin:round;stroke-dasharray:none;stroke-opacity:1;paint-order:normal"
       id="path10"
       cx="135.46666"
       cy="135.46666"
       r="124.26984" />
  </g>
  <g
     id="layer1"
     style="stroke:#000000;stroke-opacity:1">
    <g
       id="g9"
       transform="translate(5.8163345,2.1148595)"
       style="stroke:#332b00;stroke-opacity:1">
      <path
         style="fill:#ffd700;fill-opacity:1;stroke:#332b00;stroke-width:8.46667;stroke-linejoin:round;stroke-dasharray:none;stroke-opacity:1;paint-order:normal"
         d="m 161.39432,142.875 -9.52319,63.488 h 6.3488 c 3.17439,0 6.34879,3.17441 6.34879,9.5232 0,6.34879 -3.1744,9.52321 -6.34879,9.52321 h -57.1392 c -3.17439,0 -6.348801,-3.17442 -6.348801,-9.52321 0,-6.34879 3.174411,-9.5232 6.348801,-9.5232 h 6.3488 l -9.52319,-63.488 31.21482,-33.86485 z"
         id="path5-4" />
      <path
         style="fill:#ffd700;fill-opacity:1;stroke:#332b00;stroke-width:8.46667;stroke-linejoin:round;stroke-dasharray:none;stroke-opacity:1;paint-order:normal"
         d="m 129.65033,123.8286 h -24.76032 v 2.75095 h 8.88832 c 5.07904,0 6.3488,4.97333 6.3488,8.14772 0,3.17441 -1.26976,8.14774 -6.3488,8.14774 H 97.90634 c -3.174411,0 -6.348819,-3.17441 -6.348819,-6.3488 V 73.038203 c 0,-25.395201 12.697599,-31.744002 38.092809,-31.744002 25.39521,0 38.09281,6.348801 38.09281,31.744002 v 63.488007 c 0,3.17439 -3.17442,6.3488 -6.34882,6.3488 h -15.87199 c -5.07904,0 -6.3488,-4.97333 -6.3488,-8.14774 0,-3.17439 1.26976,-8.14772 6.3488,-8.14772 h 8.88832 v -2.75095 h -24.76032"
         id="path1-7" />
      <path
         style="fill:none;stroke:#332b00;stroke-width:8.46667;stroke-linejoin:round;stroke-dasharray:none;stroke-opacity:1;paint-order:stroke fill markers"
         d="m 104.25513,190.49101 h 50.79039"
         id="path6-0" />
      <path
         style="fill:none;stroke:#332b00;stroke-width:8.46667;stroke-linejoin:round;stroke-dasharray:none;stroke-opacity:1;paint-order:stroke fill markers"
         d="m 104.25513,174.619 h 50.79039"
         id="path7-8" />
      <path
         style="fill:none;stroke:#332b00;stroke-width:8.46667;stroke-linejoin:round;stroke-dasharray:none;stroke-opacity:1;paint-order:stroke fill markers"
         d="m 101.08073,158.747 h 57.13919"
         id="path8-8" />
      <path
         style="fill:none;stroke:#332b00;stroke-width:8.46667;stroke-linejoin:round;stroke-dasharray:none;stroke-opacity:1;paint-order:normal"
         d="m 107.42953,206.363 h 44.4416"
         id="path9" />
      <path
         style="fill:none;stroke:#332b00;stroke-width:8.46667;stroke-linejoin:round;stroke-dasharray:none;stroke-opacity:1;paint-order:normal"
         d="m 113.77833,63.515002 h 31.744 c 0,19.046403 3.17404,28.68545 -15.872,28.569602 -19.02412,-0.115706 -15.872,-9.523199 -15.872,-28.569602 z"
         id="path2" />
      <path
         id="path3"
         style="fill:none;stroke:#332b00;stroke-width:8.46667;stroke-linejoin:round;stroke-dasharray:none;stroke-opacity:1;paint-order:stroke fill markers"
         d="M 129.65034,92.084599 V 120.6542 c 22.22078,0 38.0928,-6.34881 38.0928,-19.0464 L 142.34793,88.910198" />
      <path
         style="fill:none;stroke:#332b00;stroke-width:8.46667;stroke-linejoin:round;stroke-dasharray:none;stroke-opacity:1;paint-order:stroke fill markers"
         d="m 135.99912,92.084602 15.87201,25.395208"
         id="path4" />
      <path
         id="path3-2"
         style="fill:none;stroke:#332b00;stroke-width:8.46667;stroke-linejoin:round;stroke-dasharray:none;stroke-opacity:1;paint-order:stroke fill markers"
         d="M 129.65032,92.084599 V 120.6542 c -22.22078,0 -38.092799,-6.34881 -38.092799,-19.0464 L 116.95272,88.910198" />
      <path
         style="fill:none;stroke:#332b00;stroke-width:8.46667;stroke-linejoin:round;stroke-dasharray:none;stroke-opacity:1;paint-order:stroke fill markers"
         d="m 123.30153,92.084602 -15.872,25.395208"
         id="path4-5" />
    </g>
  </g>
  <g
     id="layer3"
     style="display:none">
    <path
       style="fill:#deb887;fill-opacity:1;stroke:#936a06;stroke-width:0.79375;stroke-linejoin:round;stroke-dasharray:none;stroke-opacity:1;paint-order:normal"
       d="m 216.95832,37.041669 7.9375,-9.260417"
       id="path19" />
    <path
       style="fill:#deb887;fill-opacity:1;stroke:#936a06;stroke-width:0.79375;stroke-linejoin:round;stroke-dasharray:none;stroke-opacity:1;paint-order:normal"
       d="m 36.516996,220.13515 -3.439584,2.11667"
       id="path20"
       transform="translate(5.8163346,2.1148595)" />
  </g>
  <path
     style="font-weight:900;font-size:126.562px;font-family:Nunito;-inkscape-font-specification:'Nunito Heavy';fill:#ffffff;stroke:#ffffff"
     d="m 371.95383,185.54163 q -4.6828,0 -7.59372,-2.15155 -2.91093,-2.27812 -4.55623,-6.96091 L 335.12429,107.706 q -2.025,-5.69529 0.63281,-9.618709 2.78436,-4.049984 9.74527,-4.049984 4.68279,0 7.3406,2.278116 2.6578,2.151554 4.17654,6.834347 l 18.85774,56.57321 h -5.94841 l 20.24992,-56.57321 q 1.77186,-4.682793 4.42966,-6.834347 2.65781,-2.278116 6.83435,-2.278116 4.17655,0 6.70779,2.278116 2.53124,2.151554 4.17654,6.960907 l 18.9843,56.44665 h -5.06248 l 19.36399,-56.57321 q 1.51874,-4.682793 4.04998,-6.834347 2.65781,-2.278116 7.3406,-2.278116 5.82185,0 8.47965,4.049984 2.78437,3.923419 0.63281,9.618709 l -24.93271,68.84973 q -1.64531,4.55623 -4.55623,6.83435 -2.78437,2.15155 -7.46716,2.15155 -4.80936,0 -7.72028,-2.15155 -2.78437,-2.27812 -4.42967,-6.96091 l -17.84524,-50.11855 h 3.16405 l -18.22493,50.24511 q -1.77187,4.55623 -4.55623,6.83435 -2.78437,2.15155 -7.59372,2.15155 z m 120.20957,0.25312 q -7.21403,0 -12.78276,-2.6578 -5.44216,-2.6578 -8.60621,-7.21403 -3.03749,-4.6828 -3.03749,-10.63121 0,-6.83435 3.54373,-10.75777 3.54374,-3.92342 11.39058,-5.56873 7.84685,-1.77186 20.88273,-1.77186 h 6.96091 v 10.6312 h -6.96091 q -4.93591,0 -8.22653,0.75938 -3.16405,0.63281 -4.68279,2.15155 -1.51874,1.39218 -1.51874,3.6703 0,2.91092 2.02499,4.80935 2.15155,1.89843 6.07497,1.89843 3.16405,0 5.56873,-1.39218 2.53124,-1.39218 4.04999,-3.79686 1.51874,-2.53124 1.51874,-5.82185 v -14.68119 q 0,-4.55623 -2.40468,-6.45466 -2.27811,-1.89843 -7.9734,-1.89843 -3.03749,0 -6.83435,0.75937 -3.79686,0.63281 -8.47966,2.40468 -3.41717,1.26562 -5.82185,0.37968 -2.40468,-0.88593 -3.79686,-3.03749 -1.26562,-2.15155 -1.26562,-4.68279 0.12656,-2.53124 1.64531,-4.80936 1.6453,-2.27811 4.93592,-3.54373 6.07497,-2.27812 11.13745,-3.03749 5.18904,-0.75937 9.49215,-0.75937 10.37809,0 17.08587,3.03749 6.83435,2.91092 10.12496,9.11246 3.41717,6.07498 3.41717,15.69369 v 25.56552 q 0,5.56873 -2.6578,8.47965 -2.6578,2.91093 -7.72028,2.91093 -5.18904,0 -7.9734,-2.91093 -2.65781,-2.91092 -2.65781,-8.47965 v -3.29061 l 0.75938,1.77187 q -0.63281,4.04998 -2.91093,6.96091 -2.27812,2.91092 -5.94841,4.55623 -3.6703,1.6453 -8.3531,1.6453 z m 73.91231,0 q -12.14995,0 -17.9718,-6.45466 -5.69529,-6.58122 -5.69529,-19.74367 v -54.16853 q 0,-5.568731 2.91092,-8.479657 2.91093,-2.910926 8.22653,-2.910926 5.44217,0 8.35309,2.910926 3.03749,2.910926 3.03749,8.479657 v 53.40916 q 0,4.68279 1.77187,6.83435 1.89843,2.15155 4.80936,2.15155 0.88593,0 1.77186,-0.12656 1.0125,-0.25312 2.15156,-0.37969 2.15155,0 3.16405,1.64531 1.13906,1.64531 1.13906,6.70778 0,4.42967 -1.77187,6.70779 -1.77187,2.15155 -5.44217,2.78436 -1.01249,0.12657 -2.91092,0.37969 -1.89843,0.25312 -3.54374,0.25312 z m 44.04352,0 q -12.14995,0 -17.97181,-6.45466 -5.69529,-6.58122 -5.69529,-19.74367 v -54.16853 q 0,-5.568731 2.91093,-8.479657 2.91093,-2.910926 8.22653,-2.910926 5.44217,0 8.35309,2.910926 3.03749,2.910926 3.03749,8.479657 v 53.40916 q 0,4.68279 1.77187,6.83435 1.89843,2.15155 4.80935,2.15155 0.88594,0 1.77187,-0.12656 1.0125,-0.25312 2.15156,-0.37969 2.15155,0 3.16405,1.64531 1.13905,1.64531 1.13905,6.70778 0,4.42967 -1.77186,6.70779 -1.77187,2.15155 -5.44217,2.78436 -1.0125,0.12657 -2.91093,0.37969 -1.89843,0.25312 -3.54373,0.25312 z m 69.73553,-0.25312 q -5.56873,0 -8.60622,-3.03749 -3.03749,-3.16405 -3.03749,-8.73278 v -66.82473 q 0,-5.69529 3.03749,-8.732777 3.16405,-3.037488 8.73278,-3.037488 h 31.13425 q 15.18744,0 23.41397,7.846845 8.35309,7.72028 8.35309,21.38898 0,13.66869 -8.35309,21.51554 -8.22653,7.72028 -23.41397,7.72028 h -19.61711 v 20.12335 q 0,5.56873 -2.91093,8.73278 -2.91092,3.03749 -8.73277,3.03749 z m 11.6437,-49.73886 h 15.56712 q 6.58123,0 10.12496,-2.78437 3.54374,-2.91092 3.54374,-8.60621 0,-5.82186 -3.54374,-8.60622 -3.54373,-2.78436 -10.12496,-2.78436 h -15.56712 z m 71.00133,49.73886 q -5.56872,0 -8.60621,-2.91093 -2.91093,-2.91092 -2.91093,-8.47965 v -41.89202 q 0,-5.44217 2.78437,-8.35309 2.91092,-2.91093 8.22653,-2.91093 5.3156,0 8.09996,2.91093 2.78437,2.91092 2.78437,8.35309 v 5.18904 h -1.26562 q 1.26562,-7.59372 6.45466,-12.02339 5.3156,-4.42967 13.16245,-4.68279 3.67029,-0.12656 5.44216,1.89843 1.89843,1.89843 2.02499,7.21403 0,4.55623 -1.89843,7.21404 -1.89843,2.6578 -7.21403,3.16405 l -2.91092,0.25312 q -6.70779,0.63281 -9.74528,3.79686 -3.03749,3.03749 -3.03749,9.11246 v 20.75617 q 0,5.56873 -2.91092,8.47965 -2.91093,2.91093 -8.47966,2.91093 z m 73.75077,0.25312 q -10.37809,0 -18.09837,-3.92342 -7.72028,-3.92342 -12.02339,-11.26401 -4.30311,-7.3406 -4.30311,-17.339 0,-7.59372 2.40468,-13.54213 2.40468,-6.07498 6.96091,-10.25152 4.55623,-4.30311 10.88433,-6.45467 6.3281,-2.27811 14.17495,-2.27811 10.37808,0 18.09836,3.92342 7.72028,3.92342 11.89683,11.26402 4.30311,7.21403 4.30311,17.33899 0,7.46716 -2.40468,13.54214 -2.40468,6.07497 -6.96091,10.37808 -4.42967,4.17654 -10.88433,6.45466 -6.3281,2.15155 -14.04838,2.15155 z m 0,-16.57962 q 3.41717,0 6.07497,-1.6453 2.6578,-1.77187 4.04999,-5.18904 1.51874,-3.54374 1.51874,-9.11247 0,-8.47965 -3.29061,-12.14995 -3.29061,-3.79686 -8.35309,-3.79686 -3.41718,0 -6.07498,1.64531 -2.6578,1.6453 -4.17655,5.18904 -1.51874,3.41717 -1.51874,9.11246 0,8.35309 3.29061,12.14995 3.29061,3.79686 8.47966,3.79686 z m 41.00598,38.85454 q -3.92342,0.12656 -6.20154,-1.39219 -2.40468,-1.51874 -3.29061,-3.79686 -0.88594,-2.27811 -0.37969,-4.68279 0.37969,-2.27812 2.02499,-4.04998 1.64531,-1.64531 4.17655,-1.89843 4.17655,-0.25313 6.07498,-2.27812 1.89843,-1.89843 1.89843,-5.94841 v -51.76386 q 0,-5.44217 2.91092,-8.35309 2.91093,-2.91093 8.35309,-2.91093 5.44217,0 8.35309,2.91093 2.91093,2.91092 2.91093,8.35309 v 49.6123 q 0,8.47966 -2.91093,14.17495 -2.91092,5.82185 -8.85933,8.73277 -5.82186,3.03749 -15.06088,3.29062 z m 15.44056,-96.06056 q -6.07497,0 -9.36559,-2.78436 -3.16405,-2.78437 -3.16405,-8.09997 0,-5.189043 3.16405,-7.973407 3.29062,-2.784364 9.36559,-2.784364 6.07498,0 9.23903,2.784364 3.29061,2.784364 3.29061,7.973407 0,5.3156 -3.29061,8.09997 -3.16405,2.78436 -9.23903,2.78436 z m 58.47178,73.78564 q -11.39058,0 -19.74368,-3.92342 -8.22653,-4.04998 -12.6562,-11.39058 -4.42967,-7.34059 -4.42967,-17.33899 0,-9.61871 4.17655,-16.83275 4.30311,-7.34059 11.6437,-11.39058 7.46716,-4.17654 16.95931,-4.17654 6.96091,0 12.6562,2.27811 5.69529,2.15156 9.74528,6.45467 4.04998,4.17654 6.07497,10.12496 2.15155,5.94841 2.15155,13.28901 0,2.53124 -1.39218,3.79686 -1.39218,1.13905 -4.42967,1.13905 h -38.72797 v -10.6312 h 28.09677 l -2.025,1.6453 q 0,-4.68279 -1.26562,-7.59372 -1.26562,-2.91092 -3.79686,-4.42967 -2.40467,-1.51874 -6.07497,-1.51874 -3.92342,0 -6.83435,1.89843 -2.78436,1.77187 -4.30311,5.3156 -1.51874,3.54374 -1.51874,8.85934 v 1.13906 q 0,8.9859 3.92342,12.90932 4.04998,3.79686 12.40308,3.79686 2.78436,0 6.3281,-0.63281 3.67029,-0.75937 6.96091,-2.02499 3.29061,-1.26562 5.69529,-0.37968 2.40467,0.75937 3.67029,2.78436 1.39219,1.89843 1.51875,4.42967 0.12656,2.40468 -1.13906,4.80935 -1.26562,2.27812 -4.17655,3.54374 -4.42967,2.02499 -9.49215,3.03749 -4.93591,1.01249 -9.99839,1.01249 z m 68.09042,0 q -10.5047,0 -18.3515,-3.92342 -7.72031,-3.92342 -12.02341,-11.26401 -4.30311,-7.46716 -4.30311,-17.46556 0,-7.59372 2.40468,-13.54213 2.40467,-6.07498 6.96091,-10.25153 4.68279,-4.17654 11.01093,-6.3281 6.4546,-2.27811 14.3015,-2.27811 3.6703,0 7.7202,0.75937 4.05,0.63281 8.3531,2.53124 3.0375,1.13906 4.1766,3.54374 1.2656,2.27811 1.0125,4.93591 -0.1266,2.65781 -1.5188,4.80936 -1.2656,2.15155 -3.6703,2.91093 -2.2781,0.75937 -5.189,-0.63281 -2.025,-1.0125 -4.3031,-1.39219 -2.1516,-0.50624 -4.1766,-0.50624 -3.4171,0 -6.0749,1.01249 -2.5313,1.0125 -4.3031,3.03749 -1.7719,1.89843 -2.7844,4.80936 -0.8859,2.91092 -0.8859,6.58122 0,7.3406 3.6703,11.51714 3.6703,4.17655 10.378,4.17655 2.025,0 4.1766,-0.37969 2.1515,-0.50625 4.3031,-1.51874 2.9109,-1.39218 5.189,-0.50625 2.2782,0.75937 3.6703,2.91093 1.3922,2.15155 1.5188,4.80935 0.1265,2.53124 -1.1391,4.93592 -1.2656,2.27811 -4.3031,3.41717 -4.1765,1.89843 -8.2265,2.53124 -3.9234,0.75937 -7.5937,0.75937 z m 62.6374,0 q -9.4922,0 -15.6937,-2.91092 -6.075,-2.91093 -9.1125,-8.73278 -3.0375,-5.94841 -3.0375,-14.80775 v -20.62961 h -4.3031 q -4.05,0 -6.3281,-2.15155 -2.1515,-2.15156 -2.1515,-6.20154 0,-4.04998 2.1515,-6.07498 2.2781,-2.15155 6.3281,-2.15155 h 4.3031 v -7.84684 q 0,-5.56873 2.911,-8.47966 2.9109,-2.91092 8.353,-2.91092 5.4422,0 8.3531,2.91092 2.911,2.91093 2.911,8.47966 v 7.84684 h 10.378 q 4.1766,0 6.3281,2.15155 2.2782,2.025 2.2782,6.07498 0,4.04998 -2.2782,6.20154 -2.1515,2.15155 -6.3281,2.15155 h -10.378 v 19.87024 q 0,4.68279 2.1515,6.96091 2.2781,2.15155 7.0875,2.15155 1.7719,0 3.4172,-0.37969 1.6453,-0.37968 3.0374,-0.37968 2.025,-0.12656 3.2907,1.26562 1.2656,1.26562 1.2656,5.94841 0,3.79686 -1.1391,6.45466 -1.139,2.53124 -4.05,3.6703 -1.7718,0.63281 -4.8093,1.0125 -3.0375,0.50624 -4.9359,0.50624 z m 34.6109,-0.25312 q -5.3156,0 -8.2265,-3.16405 -2.911,-3.16405 -2.911,-9.11246 v -39.99359 q 0,-5.94842 2.911,-9.11247 2.9109,-3.16405 8.2265,-3.16405 5.4422,0 8.3531,3.16405 3.0375,3.16405 3.0375,9.11247 v 39.99359 q 0,5.94841 -2.911,9.11246 -2.9109,3.16405 -8.4796,3.16405 z m 0,-73.53252 q -5.9484,0 -9.239,-2.78436 -3.1641,-2.78437 -3.1641,-8.09997 0,-5.189043 3.1641,-7.973407 3.2906,-2.784364 9.239,-2.784364 6.2015,0 9.3656,2.784364 3.164,2.784364 3.164,7.973407 0,5.3156 -3.164,8.09997 -3.1641,2.78436 -9.3656,2.78436 z m 55.9404,73.78564 q -10.378,0 -18.0983,-3.92342 -7.7203,-3.92342 -12.0234,-11.26401 -4.3031,-7.3406 -4.3031,-17.339 0,-7.59372 2.4047,-13.54213 2.4046,-6.07498 6.9609,-10.25152 4.5562,-4.30311 10.8843,-6.45467 6.3281,-2.27811 14.1749,-2.27811 10.3781,0 18.0984,3.92342 7.7203,3.92342 11.8968,11.26402 4.3031,7.21403 4.3031,17.33899 0,7.46716 -2.4046,13.54214 -2.4047,6.07497 -6.961,10.37808 -4.4296,4.17654 -10.8843,6.45466 -6.3281,2.15155 -14.0484,2.15155 z m 0,-16.57962 q 3.4172,0 6.075,-1.6453 2.6578,-1.77187 4.05,-5.18904 1.5187,-3.54374 1.5187,-9.11247 0,-8.47965 -3.2906,-12.14995 -3.2906,-3.79686 -8.3531,-3.79686 -3.4171,0 -6.0749,1.64531 -2.6578,1.6453 -4.1766,5.18904 -1.5187,3.41717 -1.5187,9.11246 0,8.35309 3.2906,12.14995 3.2906,3.79686 8.4796,3.79686 z m 55.8137,16.3265 q -5.3156,0 -8.2265,-2.91093 -2.9109,-2.91092 -2.9109,-8.47965 v -41.89202 q 0,-5.44217 2.7843,-8.35309 2.911,-2.91093 8.2266,-2.91093 5.3156,0 8.0999,2.91093 2.7844,2.91092 2.7844,8.35309 v 5.94841 l -1.3922,-5.18904 q 3.0375,-5.94841 8.6062,-9.11246 5.6953,-3.16405 12.9094,-3.16405 7.4671,0 12.2765,2.91092 4.8093,2.78437 7.214,8.85934 2.4047,5.94842 2.4047,15.06088 v 26.57802 q 0,5.56873 -2.9109,8.47965 -2.911,2.91093 -8.3531,2.91093 -5.4422,0 -8.3531,-2.91093 -2.9109,-2.91092 -2.9109,-8.47965 v -25.69208 q 0,-5.69529 -2.025,-8.09997 -1.8985,-2.40468 -5.6953,-2.40468 -5.0625,0 -8.1,3.29061 -3.0375,3.16405 -3.0375,8.60622 v 24.2999 q 0,11.39058 -11.3906,11.39058 z m 90.3655,0.25312 q -5.5688,0 -11.3906,-0.88593 -5.6953,-0.75937 -10.3781,-2.91093 -3.1641,-1.26562 -4.5562,-3.41717 -1.2657,-2.15155 -1.2657,-4.55623 0.1266,-2.40468 1.3922,-4.30311 1.3922,-2.02499 3.5438,-2.78436 2.2781,-0.88594 5.0624,0.12656 5.3156,1.89843 9.4922,2.78436 4.3031,0.75938 8.2265,0.75938 4.6828,0 6.7078,-1.26562 2.025,-1.39219 2.025,-3.54374 0,-1.89843 -1.3922,-2.91093 -1.2656,-1.01249 -3.6703,-1.39218 l -14.0484,-2.27811 q -7.8468,-1.39219 -12.1499,-5.69529 -4.3031,-4.42967 -4.3031,-11.51715 0,-6.58122 3.6703,-11.26401 3.7968,-4.80936 10.2515,-7.3406 6.5812,-2.6578 15.0609,-2.6578 5.6953,0 10.3781,0.88593 4.6827,0.75937 9.1124,2.91093 2.7844,1.13906 3.9234,3.29061 1.1391,2.15155 0.886,4.55623 -0.2532,2.27812 -1.6453,4.30311 -1.2657,1.89843 -3.5438,2.6578 -2.2781,0.63281 -5.3156,-0.37968 -4.1765,-1.64531 -7.4671,-2.40468 -3.1641,-0.75937 -5.9484,-0.75937 -5.1891,0 -7.3406,1.39218 -2.1516,1.39218 -2.1516,3.54373 0,1.64531 1.1391,2.78437 1.139,1.01249 3.5437,1.39218 l 14.0484,2.40468 q 8.0999,1.26562 12.4031,5.56873 4.4296,4.17654 4.4296,11.39058 0,10.25152 -7.8468,15.94681 -7.8469,5.56872 -20.8827,5.56872 z"
     id="text1"
     aria-label="Wall Projections" />
</svg>
