<?xml version="1.0" encoding="UTF-8" standalone="no"?>
<!-- Created with Inkscape (http://www.inkscape.org/) -->

<svg
   width="86"
   height="86"
   viewBox="0 0 22.754166 22.754167"
   version="1.1"
   id="svg1"
   xmlns="http://www.w3.org/2000/svg"
   xmlns:svg="http://www.w3.org/2000/svg">
  <defs
     id="defs1" />
  <g
     id="layer1">
    <path
       style="fill:#000000;stroke:#ffffff;stroke-width:0.794;stroke-linejoin:round;stroke-dasharray:none;paint-order:stroke markers fill"
       d="m 10.285488,2.4042567 c 1.039772,-0.5759131 2.337804,-0.2412705 2.975633,0.7402397 l 0.0828,0.137827 7.758956,14.0082626 c 0.184798,0.33364 0.281751,0.708781 0.281751,1.090182 0,1.190864 -0.925161,2.165645 -2.095951,2.244809 l -0.154049,0.0052 H 3.6188742 c -0.3813106,0 -0.7563661,-0.09691 -1.0899498,-0.281623 C 1.4890851,19.773355 1.0840445,18.495538 1.5775993,17.434128 L 1.6504968,17.290818 9.4072932,3.2825556 C 9.6118212,2.9131919 9.9161492,2.6088281 10.285488,2.4042567 Z M 19.790709,18.017374 12.031753,4.0091114 C 11.831056,3.6467668 11.374621,3.5157255 11.012276,3.7164225 c -0.09234,0.051143 -0.17248,0.1209968 -0.235543,0.2046691 l -0.05719,0.088097 -7.7567956,14.0082624 c -0.2006542,0.362368 -0.069559,0.818788 0.2928092,1.019443 0.083396,0.04618 0.1745678,0.07589 0.2685633,0.08786 l 0.094753,0.006 H 19.134626 c 0.414214,0 0.75,-0.335787 0.75,-0.75 0,-0.09535 -0.01818,-0.189527 -0.05326,-0.277574 L 19.790706,18.01736 12.03175,4.0090972 Z m -8.414165,-2.393496 c 0.551546,0 0.998662,0.447117 0.998662,0.998663 0,0.551546 -0.447116,0.998662 -0.998662,0.998662 -0.551546,0 -0.998663,-0.447116 -0.998663,-0.998662 0,-0.551546 0.447117,-0.998663 0.998663,-0.998663 z m -0.0042,-7.5022358 c 0.379695,-3.032e-4 0.693716,0.2815997 0.743671,0.6476354 l 0.0069,0.101765 0.0036,4.5015944 c 3.31e-4,0.414213 -0.335187,0.750268 -0.7494,0.7506 -0.379696,3.03e-4 -0.693717,-0.2816 -0.743672,-0.647635 l -0.0069,-0.101765 -0.0036,-4.5015947 C 10.622612,8.4580289 10.95813,8.121974 11.372344,8.1216422 Z"
       id="path1" />
  </g>
</svg>
