<?xml version="1.0" encoding="UTF-8" standalone="no"?>
<!-- Created with Inkscape (http://www.inkscape.org/) -->

<svg
   width="86"
   height="86"
   viewBox="0 0 22.754166 22.754167"
   version="1.1"
   id="svg1"
   xmlns="http://www.w3.org/2000/svg">
  <defs
     id="defs1" />
  <g
     id="layer1">
    <path
       style="fill:#000000;stroke:#ffffff;stroke-width:0.71899996;stroke-linejoin:round;stroke-dasharray:none;paint-order:stroke markers fill"
       d="M 11.376849,1.6709116 C 7.4166148,1.671009 4.2062261,4.9993221 4.2061325,9.1053024 4.2131664,12.139392 5.9977252,14.864889 8.7150173,15.991206 H 4.2879846 c -0.8985029,0 -1.436905,0.442766 -1.4368562,1.19445 v 2.70412 c 0,0.765261 0.5383533,1.193479 1.4368562,1.193479 H 18.466182 c 0.89896,0 1.434721,-0.428218 1.436856,-1.193479 v -2.70412 c 5e-5,-0.751684 -0.526782,-1.194382 -1.436856,-1.19445 h -4.38634 c 2.701314,-1.139631 4.46786,-3.862189 4.468192,-6.8859036 -9.4e-5,-4.1061699 -3.210766,-7.4345615 -7.171185,-7.4343908 z m 0,1.8040399 c 2.99918,-7.83e-5 5.430593,2.5207948 5.430775,5.6303509 7.5e-5,3.1097456 -2.431413,5.6309146 -5.430775,5.6308356 C 8.3776703,14.735948 5.9464677,12.214859 5.9465433,9.1053024 5.9467265,5.995936 8.3778532,3.4751414 11.376849,3.4749515 Z m 0,1.8767833 C 9.3775187,5.3518615 7.7567675,7.0323912 7.7566453,9.1053024 7.7565091,11.178403 9.377336,12.859229 11.376849,12.859355 13.376545,12.859496 14.997658,11.178593 14.997521,9.1053024 14.9974,7.0322015 13.376363,5.3515932 11.376849,5.3517348 Z"
       id="path1" />
  </g>
</svg>
